<?xml version="1.0" encoding="utf-8"?>
<svg width="32px" height="35px" viewBox="0 0 32 35" version="1.1" xmlns:xlink="http://www.w3.org/1999/xlink" xmlns="http://www.w3.org/2000/svg">
  <desc>Created with Lunacy</desc>
  <g id="new_logo" transform="translate(0.5 0.5)">
    <g id="Group" transform="translate(11 0)">
      <path d="M0 0C0 0 1 1.2766 2.5 1.2766C4 1.2766 4.5 0 6 0C7.5 0 7.5 1.2766 9 1.2766C10.5 1.2766 12 0 12 0L12 20L0 20L0 0Z" transform="translate(0 8.5)" id="New-shape-2" fill="#000000" stroke="#000000" stroke-width="1" stroke-linecap="round" stroke-linejoin="round" />
      <path d="M0 8.5L6 0L12 8.5C12 8.5 10.5 10 9 10C7.5 10 7.25 8.5 6 8.5C4.75 8.5 4 10 2.5 10C1 10 0 8.5 0 8.5Z" id="New-shape-4" fill="#FFFFFF" stroke="#000000" stroke-width="1" stroke-linecap="round" stroke-linejoin="round" />
      <path d="M0 3.01616C0 3.01616 1.06251 4.00404 2.08334 4C3.10418 3.99596 4.08334 3 4.08334 3L2.08334 0L0 3.01616Z" transform="translate(3.9166565 0)" id="New-shape-5" fill="#000000" stroke="#000000" stroke-width="1" stroke-linecap="round" stroke-linejoin="round" />
    </g>
    <path d="M0 8.5L6.00001 0L12 8.5L12 17L14 20L17 15.5L21 22L22.5 20L24 21.5L26 18L31 29L0 29L0 8.5Z" transform="translate(0 4.5)" id="New-shape" fill="#FFFFFF" stroke="#000000" stroke-width="1" stroke-linecap="round" stroke-linejoin="round" />
    <path d="M0 3.01616C0 3.01616 1.06251 4.00404 2.08334 4C3.10418 3.99596 4.08334 3 4.08334 3L2.08334 0L0 3.01616Z" transform="translate(3.9999695 5.5)" id="New-shape-5" fill="#000000" stroke="#000000" stroke-width="1" stroke-linecap="round" stroke-linejoin="round" />
  </g>
</svg>